<?xml version="1.0" encoding="UTF-8"?>
<svg id="uuid-962d390f-1f0d-4809-bdad-58a59b67f9d9" data-name="Layer 1" xmlns="http://www.w3.org/2000/svg" viewBox="0 0 716.67 366.67">
  <path d="m701.51,2.03c12.69,5.44,18.57,20.14,13.13,32.83l-22.98-9.85q22.98,9.85,22.98,9.85l-.02.06-.04.08-.11.25-.36.8c-.3.67-.73,1.61-1.28,2.8-1.11,2.38-2.73,5.76-4.88,9.97-4.3,8.42-10.71,20.22-19.35,34.08-14.19,22.77-34.53,51.37-61.55,79.79l32.28,32.28c9.76,9.76,9.76,25.59,0,35.36-9.76,9.76-25.59,9.76-35.36,0l-33.35-33.35c-21.99,18.42-47.21,35.71-75.8,49.92l31.12,47.83c7.53,11.57,4.25,27.06-7.32,34.59-11.57,7.53-27.06,4.25-34.59-7.32l-36.31-55.8c-25.98,8.48-54.1,14.25-84.41,16.32v59.18c0,13.81-11.19,25-25,25s-25-11.19-25-25v-59.18c-29.37-2-56.69-7.48-82-15.54l-35.8,55.02c-7.53,11.57-23.02,14.85-34.59,7.32-11.57-7.53-14.85-23.02-7.32-34.59l30.41-46.74c-28.81-14.07-54.24-31.29-76.42-49.69l-32.03,32.03c-9.76,9.76-25.59,9.76-35.36,0-9.76-9.76-9.76-25.59,0-35.35l30.79-30.79c-27.49-28.66-48.18-57.61-62.59-80.67-8.76-14.02-15.27-25.97-19.63-34.5-2.18-4.27-3.83-7.69-4.95-10.1-.56-1.21-.99-2.16-1.3-2.84l-.36-.81-.11-.25-.04-.08v-.03s-.02-.03,22.95-9.87L2.03,34.88C-3.41,22.19,2.46,7.47,15.15,2.03c12.68-5.43,27.36.43,32.81,13.1,0,0,0,0,0,0l.03.07.2.46c.2.44.52,1.15.96,2.1.89,1.91,2.27,4.79,4.17,8.5,3.79,7.42,9.6,18.09,17.5,30.74,15.85,25.36,39.89,58.25,72.7,88.73,28.86,26.82,64.23,51.53,106.53,67.81,31.82,12.24,67.79,19.81,108.27,19.81s78.07-7.91,110.42-20.64c42.05-16.55,77.18-41.42,105.81-68.29,32.32-30.33,56.01-62.9,71.63-87.96,7.79-12.5,13.5-23.03,17.24-30.35,1.87-3.66,3.23-6.5,4.11-8.38.44-.94.75-1.63.95-2.07l.2-.45.02-.04s0,0,0,0m32.83-13.13c-12.69-5.44-27.39.45-32.83,13.13l32.83-13.13ZM47.96,15.13s0,0,0,0h0Z" fill="#375459" fill-rule="evenodd"/>
</svg>