<?xml version="1.0" encoding="UTF-8"?>
<svg id="uuid-3a7bde3a-7226-4e2b-9973-618b323f8d6e" data-name="Layer 1" xmlns="http://www.w3.org/2000/svg" viewBox="0 0 716.67 583.33">
  <path d="m358.33,166.67c-69.04,0-125,55.96-125,125s55.96,125,125,125,125-55.96,125-125-55.96-125-125-125Zm-75,125c0-41.42,33.58-75,75-75s75,33.58,75,75-33.58,75-75,75-75-33.58-75-75Z" fill="#3a5856" fill-rule="evenodd"/>
  <path d="m358.33,0C207.86,0,106.51,90.14,47.69,166.56l-1.06,1.38c-13.3,17.28-25.56,33.19-33.87,52.01C3.85,240.1,0,262.06,0,291.67s3.85,51.57,12.76,71.72c8.31,18.82,20.57,34.73,33.87,52.01l1.06,1.38c58.82,76.42,160.18,166.56,310.65,166.56s251.82-90.14,310.65-166.56l1.06-1.38c13.31-17.28,25.56-33.19,33.87-52.01,8.9-20.15,12.76-42.11,12.76-71.72s-3.85-51.57-12.76-71.72c-8.31-18.82-20.56-34.73-33.87-52.01l-1.06-1.38C610.16,90.14,508.8,0,358.33,0ZM87.31,197.06C141.62,126.5,230.01,50,358.33,50s216.71,76.5,271.03,147.06c14.62,18.99,23.18,30.34,28.81,43.09,5.27,11.92,8.49,26.48,8.49,51.52s-3.23,39.6-8.49,51.52c-5.63,12.75-14.19,24.1-28.81,43.09-54.31,70.56-142.71,147.06-271.03,147.06s-216.71-76.5-271.03-147.06c-14.62-18.99-23.18-30.34-28.82-43.09-5.26-11.92-8.49-26.48-8.49-51.52s3.23-39.6,8.49-51.52c5.63-12.75,14.2-24.1,28.82-43.09Z" fill="#3a5857" fill-rule="evenodd"/>
</svg>